HIERARCHY
ROOT hips
{
	OFFSET -0.003675 0.299928 -0.021708
	CHANNELS 6 Xposition Yposition Zposition Xrotation Yrotation Zrotation
	JOINT LowerBack
	{
		OFFSET 0.000919 0.177588 0.009275
		CHANNELS 3 Xrotation Yrotation Zrotation
		JOINT spine
		{
			OFFSET 0.000919 0.177588 0.009275
			CHANNELS 3 Xrotation Yrotation Zrotation
			JOINT chest
			{
				OFFSET 0.000456 0.100015 0.004638
				CHANNELS 3 Xrotation Yrotation Zrotation
				JOINT neck
				{
					OFFSET 0.000456 0.100015 0.004638
					CHANNELS 3 Xrotation Yrotation Zrotation
					JOINT head
					{
						OFFSET 0.000924 0.155147 0.009274
						CHANNELS 6 Xposition Yposition Zposition Xrotation Yrotation Zrotation
						End Site
						{
							OFFSET 0.000000 0.153400 0.000000
						}
					}
				}
				JOINT shoulder.L
				{
					OFFSET 0.019937 0.078966 0.057518
					CHANNELS 6 Xposition Yposition Zposition Yrotation Xrotation Zrotation
					JOINT upper_arm.L
					{
						OFFSET 0.177024 -0.020465 -0.095062
						CHANNELS 6 Xposition Yposition Zposition Xrotation Yrotation Zrotation
						JOINT forearm.L
						{
							OFFSET 0.247100 -0.135500 -0.061800
							CHANNELS 3 Xrotation Yrotation Zrotation
							JOINT hand.L
							{
								OFFSET 0.217000 -0.143000 0.039300
								CHANNELS 3 Xrotation Yrotation Zrotation
								JOINT palm.01.L
								{
									OFFSET 0.021770 -0.038291 0.012954
									CHANNELS 6 Xposition Yposition Zposition Yrotation Xrotation Zrotation
									JOINT f_index.01.L
									{
										OFFSET 0.053215 -0.044137 0.008236
										CHANNELS 3 Xrotation Yrotation Zrotation
										JOINT f_index.02.L
										{
											OFFSET 0.036108 -0.024723 -0.010656
											CHANNELS 3 Xrotation Yrotation Zrotation
											JOINT f_index.03.L
											{
												OFFSET 0.021342 -0.014948 -0.010846
												CHANNELS 3 Xrotation Yrotation Zrotation
												End Site
												{
													OFFSET 0.015600 -0.009860 -0.013421
												}
											}
										}
									}
									JOINT thumb.01.L
									{
										OFFSET -0.009090 -0.002348 -0.024223
										CHANNELS 6 Xposition Yposition Zposition Xrotation Yrotation Zrotation
										JOINT thumb.02.L
										{
											OFFSET 0.019713 -0.035076 -0.011120
											CHANNELS 3 Xrotation Yrotation Zrotation
											JOINT thumb.03.L
											{
												OFFSET 0.024877 -0.021748 -0.005176
												CHANNELS 3 Xrotation Yrotation Zrotation
												End Site
												{
													OFFSET 0.016125 -0.013029 -0.001569
												}
											}
										}
									}
								}
								JOINT palm.02.L
								{
									OFFSET 0.032823 -0.025104 0.012281
									CHANNELS 6 Xposition Yposition Zposition Yrotation Xrotation Zrotation
									JOINT f_middle.01.L
									{
										OFFSET 0.055723 -0.038469 0.008037
										CHANNELS 3 Xrotation Yrotation Zrotation
										JOINT f_middle.02.L
										{
											OFFSET 0.038167 -0.027473 -0.015582
											CHANNELS 3 Xrotation Yrotation Zrotation
											JOINT f_middle.03.L
											{
												OFFSET 0.021707 -0.016587 -0.017037
												CHANNELS 3 Xrotation Yrotation Zrotation
												End Site
												{
													OFFSET 0.014112 -0.010584 -0.014294
												}
											}
										}
									}
								}
								JOINT palm.03.L
								{
									OFFSET 0.039230 -0.011402 0.008390
									CHANNELS 6 Xposition Yposition Zposition Yrotation Xrotation Zrotation
									JOINT f_ring.01.L
									{
										OFFSET 0.061796 -0.031470 0.007910
										CHANNELS 3 Xrotation Yrotation Zrotation
										JOINT f_ring.02.L
										{
											OFFSET 0.033092 -0.023401 -0.019127
											CHANNELS 3 Xrotation Yrotation Zrotation
											JOINT f_ring.03.L
											{
												OFFSET 0.021392 -0.015362 -0.017824
												CHANNELS 3 Xrotation Yrotation Zrotation
												End Site
												{
													OFFSET 0.008670 -0.007297 -0.014686
												}
											}
										}
									}
								}
								JOINT palm.04.L
								{
									OFFSET 0.043417 0.002450 0.002889
									CHANNELS 6 Xposition Yposition Zposition Yrotation Xrotation Zrotation
									JOINT f_pinky.01.L
									{
										OFFSET 0.069986 -0.026156 0.003627
										CHANNELS 3 Xrotation Yrotation Zrotation
										JOINT f_pinky.02.L
										{
											OFFSET 0.018520 -0.012813 -0.016429
											CHANNELS 3 Xrotation Yrotation Zrotation
											JOINT f_pinky.03.L
											{
												OFFSET 0.013822 -0.009796 -0.014947
												CHANNELS 3 Xrotation Yrotation Zrotation
												End Site
												{
													OFFSET 0.007238 -0.006103 -0.011657
												}
											}
										}
									}
								}
							}
						}
					}
				}
				JOINT shoulder.R
				{
					OFFSET -0.016662 0.078957 0.057696
					CHANNELS 6 Xposition Yposition Zposition Yrotation Xrotation Zrotation
					JOINT upper_arm.R
					{
						OFFSET -0.176972 -0.020537 -0.095144
						CHANNELS 6 Xposition Yposition Zposition Xrotation Yrotation Zrotation
						JOINT forearm.R
						{
							OFFSET -0.247100 -0.135500 -0.061800
							CHANNELS 3 Xrotation Yrotation Zrotation
							JOINT hand.R
							{
								OFFSET -0.217000 -0.143000 0.039300
								CHANNELS 3 Xrotation Yrotation Zrotation
								JOINT palm.01.R
								{
									OFFSET -0.021773 -0.038278 0.012988
									CHANNELS 6 Xposition Yposition Zposition Yrotation Xrotation Zrotation
									JOINT f_index.01.R
									{
										OFFSET -0.053212 -0.044139 0.008249
										CHANNELS 3 Xrotation Yrotation Zrotation
										JOINT f_index.02.R
										{
											OFFSET -0.036049 -0.024835 -0.010634
											CHANNELS 3 Xrotation Yrotation Zrotation
											JOINT f_index.03.R
											{
												OFFSET -0.021371 -0.014881 -0.010866
												CHANNELS 3 Xrotation Yrotation Zrotation
												End Site
												{
													OFFSET -0.015584 -0.009883 -0.013422
												}
											}
										}
									}
									JOINT thumb.01.R
									{
										OFFSET 0.009113 -0.002381 -0.024211
										CHANNELS 6 Xposition Yposition Zposition Xrotation Yrotation Zrotation
										JOINT thumb.02.R
										{
											OFFSET -0.019694 -0.035097 -0.011088
											CHANNELS 3 Xrotation Yrotation Zrotation
											JOINT thumb.03.R
											{
												OFFSET -0.024867 -0.021762 -0.005168
												CHANNELS 3 Xrotation Yrotation Zrotation
												End Site
												{
													OFFSET -0.016120 -0.013036 -0.001565
												}
											}
										}
									}
								}
								JOINT palm.02.R
								{
									OFFSET -0.032828 -0.025095 0.012286
									CHANNELS 6 Xposition Yposition Zposition Yrotation Xrotation Zrotation
									JOINT f_middle.01.R
									{
										OFFSET -0.055721 -0.038472 0.008040
										CHANNELS 3 Xrotation Yrotation Zrotation
										JOINT f_middle.02.R
										{
											OFFSET -0.038101 -0.027593 -0.015557
											CHANNELS 3 Xrotation Yrotation Zrotation
											JOINT f_middle.03.R
											{
												OFFSET -0.021730 -0.016530 -0.017054
												CHANNELS 3 Xrotation Yrotation Zrotation
												End Site
												{
													OFFSET -0.014096 -0.010608 -0.014293
												}
											}
										}
									}
								}
								JOINT palm.03.R
								{
									OFFSET -0.039192 -0.011488 0.008390
									CHANNELS 6 Xposition Yposition Zposition Yrotation Xrotation Zrotation
									JOINT f_ring.01.R
									{
										OFFSET -0.061839 -0.031387 0.007876
										CHANNELS 3 Xrotation Yrotation Zrotation
										JOINT f_ring.02.R
										{
											OFFSET -0.033068 -0.023437 -0.019125
											CHANNELS 3 Xrotation Yrotation Zrotation
											JOINT f_ring.03.R
											{
												OFFSET -0.021371 -0.015393 -0.017822
												CHANNELS 3 Xrotation Yrotation Zrotation
												End Site
												{
													OFFSET -0.008654 -0.007321 -0.014684
												}
											}
										}
									}
								}
								JOINT palm.04.R
								{
									OFFSET -0.043421 0.002443 0.002845
									CHANNELS 6 Xposition Yposition Zposition Yrotation Xrotation Zrotation
									JOINT f_pinky.01.R
									{
										OFFSET -0.069983 -0.026169 0.003599
										CHANNELS 3 Xrotation Yrotation Zrotation
										JOINT f_pinky.02.R
										{
											OFFSET -0.018501 -0.012842 -0.016428
											CHANNELS 3 Xrotation Yrotation Zrotation
											JOINT f_pinky.03.R
											{
												OFFSET -0.013806 -0.009821 -0.014946
												CHANNELS 3 Xrotation Yrotation Zrotation
												End Site
												{
													OFFSET -0.007226 -0.006121 -0.011655
												}
											}
										}
									}
								}
							}
						}
					}
				}
			}
		}
	}
	JOINT pelvis.L
	{
		OFFSET 0.000000 0.000000 0.000000
		CHANNELS 6 Xposition Yposition Zposition Xrotation Yrotation Zrotation
		JOINT thigh.L
		{
			OFFSET 0.101675 0.001054 -0.000000
			CHANNELS 3 Xrotation Yrotation Zrotation
			JOINT shin.L
			{
				OFFSET 0.000000 -0.534800 0.041000
				CHANNELS 3 Xrotation Yrotation Zrotation
				JOINT foot.L
				{
					OFFSET 0.000000 -0.452000 -0.044800
					CHANNELS 3 Xrotation Yrotation Zrotation
					JOINT toe.L
					{
						OFFSET -0.000000 -0.068500 0.109600
						CHANNELS 3 Xrotation Yrotation Zrotation
						End Site
						{
							OFFSET -0.000000 0.000000 0.067200
						}
					}
				}
				JOINT heel.L
				{
					OFFSET 0.000000 -0.452000 -0.044800
					CHANNELS 3 Xrotation Yrotation Zrotation
					JOINT heel.02.L
					{
						OFFSET -0.038000 -0.085200 0.016200
						CHANNELS 6 Xposition Yposition Zposition Xrotation Yrotation Zrotation
						End Site
						{
							OFFSET 0.080000 -0.000000 0.000000
						}
					}
				}
			}
		}
	}
	JOINT pelvis.R
	{
		OFFSET 0.000000 0.000000 0.000000
		CHANNELS 6 Xposition Yposition Zposition Xrotation Yrotation Zrotation
		JOINT thigh.R
		{
			OFFSET -0.094325 0.001054 0.000000
			CHANNELS 3 Xrotation Yrotation Zrotation
			JOINT shin.R
			{
				OFFSET 0.000000 -0.534800 0.041000
				CHANNELS 3 Xrotation Yrotation Zrotation
				JOINT foot.R
				{
					OFFSET 0.000000 -0.452000 -0.044800
					CHANNELS 3 Xrotation Yrotation Zrotation
					JOINT toe.R
					{
						OFFSET -0.000000 -0.068500 0.109600
						CHANNELS 3 Xrotation Yrotation Zrotation
						End Site
						{
							OFFSET -0.000000 0.000000 0.067200
						}
					}
				}
				JOINT heel.R
				{
					OFFSET 0.000000 -0.452000 -0.044800
					CHANNELS 3 Xrotation Yrotation Zrotation
					JOINT heel.02.R
					{
						OFFSET 0.038000 -0.085200 0.016200
						CHANNELS 6 Xposition Yposition Zposition Xrotation Yrotation Zrotation
						End Site
						{
							OFFSET -0.080000 0.000000 -0.000000
						}
					}
				}
			}
		}
	}
}
MOTION
Frames: 4
Frame Time: 0.041667
-0.003675 0.299928 -0.021708 0.000000 -0.000000 0.000000 -0.000001 0.000000 0.000000 -0.000000 0.000000 0.000000 -0.000000 0.000000 0.000000 -0.000000 -0.000000 -0.000000 0.000924 0.155147 0.009274 -0.000001 -0.000000 -0.000000 0.019937 0.078966 0.057518 0.000001 0.000001 -0.000005 0.177024 -0.020465 -0.095062 -0.000006 -0.000003 0.000015 -0.000009 -0.000004 -0.000009 -0.000000 0.000000 0.000001 0.021770 -0.038291 0.012954 0.000001 -0.000001 0.000001 -0.000001 -0.000001 -0.000002 -0.000001 -0.000000 0.000007 -0.000000 0.000000 0.000003 -0.009090 -0.002348 -0.024224 -0.000002 0.000001 0.000001 0.000001 -0.000001 0.000001 -0.000000 0.000000 -0.000001 0.032823 -0.025104 0.012281 0.000000 -0.000000 0.000000 0.000001 0.000004 -0.000003 -0.000001 -0.000000 -0.000000 -0.000001 -0.000003 0.000003 0.039230 -0.011402 0.008390 -0.000000 -0.000000 0.000008 0.000001 0.000001 -0.000000 -0.000001 0.000003 -0.000001 0.000002 0.000002 -0.000000 0.043417 0.002450 0.002889 -0.000000 0.000001 0.000002 -0.000001 -0.000003 0.000001 -0.000000 0.000003 -0.000000 -0.000000 -0.000003 0.000001 -0.016662 0.078956 0.057696 -0.000001 0.000002 0.000011 -0.176972 -0.020537 -0.095144 0.000001 -0.000003 -0.000005 -0.000006 0.000005 -0.000014 -0.000001 -0.000000 0.000000 -0.021773 -0.038278 0.012988 0.000000 -0.000001 -0.000003 -0.000001 0.000001 -0.000003 -0.000001 -0.000000 0.000001 0.000001 0.000002 0.000007 0.009113 -0.002381 -0.024211 0.000002 -0.000001 0.000004 -0.000000 0.000001 0.000002 0.000000 0.000000 -0.000003 -0.032828 -0.025095 0.012286 0.000001 -0.000001 -0.000001 -0.000001 0.000003 -0.000003 -0.000002 0.000004 -0.000001 0.000001 -0.000002 -0.000000 -0.039192 -0.011488 0.008390 0.000000 0.000000 0.000001 -0.000000 0.000003 -0.000003 -0.000001 0.000001 0.000002 -0.000001 0.000000 -0.000003 -0.043421 0.002443 0.002844 -0.000000 -0.000001 0.000000 -0.000007 0.000003 -0.000002 -0.000003 -0.000000 -0.000000 0.000001 -0.000000 0.000001 -0.000000 0.000000 -0.000000 -0.000001 -0.000000 0.000001 0.000009 -0.000202 0.000014 -0.000026 0.000202 -0.000015 0.000000 -0.000000 -0.000000 0.000002 -0.000000 -0.000000 0.000000 0.000000 -0.000000 -0.038000 -0.085200 0.016200 0.000000 0.000000 0.000000 0.000000 -0.000000 -0.000000 -0.000001 0.000000 -0.000004 0.000008 -0.000013 0.000005 -0.000012 0.000013 -0.000001 -0.000003 -0.000000 -0.000000 0.000000 -0.000000 -0.000000 0.000002 -0.000000 -0.000000 0.038000 -0.085200 0.016200 0.000002 -0.000000 0.000000 
0.001440 0.272858 -0.020642 39.009905 -58.379696 40.977269 -0.000000 -0.000000 0.000000 -0.000003 -0.000002 -0.000000 -0.000003 -0.000001 0.000000 0.000001 0.000001 -0.000001 0.000924 0.155148 0.009274 22.034093 -0.023779 2.327001 0.019937 0.078966 0.057518 -38.144383 9.219939 48.096700 0.177024 -0.020465 -0.095062 -75.992610 9.782263 -45.355113 -5.237067 -7.048272 -4.902369 -0.000001 -0.000002 -0.000004 0.021770 -0.038291 0.012954 -0.000005 -0.000002 0.000001 -0.000004 0.000000 -0.000000 -0.000001 -0.000004 0.000006 -0.000000 0.000002 0.000002 -0.009090 -0.002348 -0.024223 -0.000003 -0.000002 0.000006 -0.000004 0.000004 0.000003 0.000000 -0.000001 -0.000002 0.032823 -0.025104 0.012281 -0.000002 -0.000000 -0.000001 0.000001 -0.000003 -0.000004 -0.000009 -0.000001 -0.000000 -0.000003 0.000001 0.000001 0.039230 -0.011402 0.008390 0.000001 0.000000 0.000003 0.000003 -0.000002 -0.000000 0.000001 0.000008 -0.000002 -0.000001 0.000003 0.000001 0.043417 0.002450 0.002889 -0.000001 -0.000003 -0.000005 0.000004 0.000002 -0.000004 0.000004 0.000001 -0.000002 -0.000001 -0.000001 0.000000 -0.016662 0.078957 0.057696 -27.414909 7.890923 -26.624113 -0.176972 -0.020537 -0.095144 -31.881284 -0.389125 39.844124 -17.272304 15.490376 17.469104 0.000003 -0.000001 0.000001 -0.021773 -0.038278 0.012988 0.000000 0.000000 -0.000005 -0.000001 0.000001 -0.000001 -0.000000 -0.000000 -0.000004 -0.000002 0.000000 -0.000001 0.009114 -0.002381 -0.024212 0.000002 -0.000002 0.000002 0.000001 -0.000003 0.000000 0.000000 0.000001 0.000001 -0.032828 -0.025095 0.012286 0.000001 -0.000001 -0.000001 0.000001 0.000005 0.000001 -0.000000 0.000000 -0.000006 -0.000004 0.000003 -0.000003 -0.039192 -0.011488 0.008390 -0.000001 0.000005 -0.000000 -0.000003 0.000007 0.000002 0.000002 -0.000006 -0.000002 0.000002 -0.000001 -0.000003 -0.043421 0.002443 0.002844 0.000001 -0.000001 -0.000003 -0.000002 0.000000 0.000001 -0.000003 -0.000004 -0.000002 -0.000004 0.000000 -0.000003 0.000000 0.000000 0.000000 -1.718066 0.635141 -8.659701 -28.074495 0.017550 2.064709 45.106723 1.141165 -11.591904 -0.000002 0.000001 -0.000003 -0.000003 -0.000000 0.000000 0.000002 -0.000001 0.000002 -0.038000 -0.085200 0.016200 -0.000002 0.000002 -0.000002 0.000000 0.000000 0.000000 -1.660507 0.626977 -7.426167 -44.149117 0.291841 0.687050 30.464088 2.194258 -22.741210 -0.000002 0.000002 -0.000002 0.000000 0.000002 -0.000001 0.000003 -0.000002 -0.000001 0.038000 -0.085200 0.016200 -0.000000 0.000002 -0.000001 
0.001888 0.270878 -0.020456 41.342373 -59.860072 44.147720 0.000001 0.000001 0.000000 0.000003 0.000002 0.000000 0.000000 0.000002 -0.000001 0.000003 0.000001 0.000000 0.000924 0.155148 0.009274 17.878317 -0.022400 2.996236 0.019937 0.078966 0.057518 -42.050353 10.330459 49.980869 0.177024 -0.020466 -0.095062 -79.513941 4.277625 -42.512518 -2.186552 -3.530796 -1.307182 -0.000001 0.000001 0.000001 0.021770 -0.038291 0.012954 -0.000000 0.000004 -0.000001 0.000004 -0.000005 0.000001 0.000000 0.000003 0.000003 0.000001 0.000005 0.000000 -0.009090 -0.002348 -0.024224 0.000004 -0.000001 -0.000003 -0.000000 -0.000002 0.000001 -0.000003 -0.000001 -0.000002 0.032823 -0.025104 0.012281 -0.000002 0.000004 0.000002 0.000002 0.000003 0.000000 -0.000003 -0.000002 -0.000000 0.000002 -0.000003 0.000000 0.039230 -0.011402 0.008390 -0.000001 0.000006 0.000006 -0.000001 0.000003 -0.000000 0.000002 0.000004 0.000005 0.000001 -0.000002 0.000003 0.043417 0.002450 0.002889 -0.000001 0.000003 -0.000002 -0.000002 -0.000003 -0.000000 -0.000000 0.000003 -0.000000 -0.000001 -0.000002 -0.000003 -0.016662 0.078956 0.057696 -29.521522 8.463407 -26.915578 -0.176972 -0.020537 -0.095144 -35.071707 3.326106 36.084996 -16.027246 16.153643 12.823003 -0.000002 -0.000004 0.000003 -0.021773 -0.038278 0.012988 0.000001 -0.000004 0.000002 0.000001 0.000001 0.000001 -0.000002 -0.000000 -0.000005 -0.000000 0.000000 -0.000001 0.009114 -0.002381 -0.024212 0.000001 -0.000003 0.000000 0.000001 -0.000000 0.000000 -0.000000 -0.000002 -0.000004 -0.032828 -0.025095 0.012286 0.000003 -0.000000 0.000006 -0.000001 0.000000 0.000004 0.000003 -0.000002 -0.000003 -0.000001 0.000003 -0.000003 -0.039192 -0.011488 0.008390 0.000001 -0.000001 0.000005 -0.000003 0.000002 -0.000005 -0.000001 -0.000001 0.000002 -0.000001 0.000004 -0.000000 -0.043421 0.002443 0.002844 0.000000 -0.000004 0.000007 -0.000005 0.000006 0.000006 -0.000003 0.000002 -0.000000 -0.000003 -0.000002 -0.000000 -0.000000 0.000000 -0.000000 -1.752207 0.754663 -10.009896 -28.001192 -0.039642 1.321814 42.524713 1.363619 -13.894295 0.000002 0.000004 -0.000002 0.000000 0.000002 -0.000001 0.000005 -0.000000 0.000002 -0.038000 -0.085200 0.016200 -0.000001 -0.000001 0.000002 -0.000000 0.000000 -0.000000 -1.689677 0.744299 -8.776528 -44.220970 0.418483 2.327556 25.198467 2.055847 -21.233171 0.000000 0.000002 -0.000003 -0.000000 0.000000 -0.000000 0.000005 0.000000 0.000000 0.038000 -0.085200 0.016200 0.000000 0.000002 0.000000 
0.002018 0.274450 -0.022354 34.709816 -53.119884 36.622214 0.000001 -0.000003 0.000002 0.000002 -0.000003 0.000001 -0.000001 0.000000 -0.000000 0.000000 -0.000002 0.000001 0.000924 0.155147 0.009274 18.497568 -0.021301 0.032135 0.019937 0.078966 0.057518 -38.870774 10.438454 50.967278 0.177024 -0.020465 -0.095062 -80.829668 3.692559 -42.577084 -5.614019 -7.592630 -4.577108 -0.000002 -0.000001 -0.000000 0.021770 -0.038291 0.012954 0.000004 -0.000000 -0.000004 0.000003 -0.000007 0.000001 0.000003 -0.000004 0.000004 0.000002 0.000005 0.000000 -0.009090 -0.002348 -0.024224 -0.000000 -0.000007 0.000003 -0.000001 -0.000001 0.000005 -0.000001 0.000003 0.000004 0.032823 -0.025104 0.012281 0.000002 -0.000000 0.000004 0.000003 0.000001 -0.000003 -0.000006 0.000003 0.000000 -0.000002 0.000002 -0.000002 0.039230 -0.011402 0.008390 0.000001 -0.000002 0.000008 0.000004 -0.000003 -0.000002 -0.000003 0.000003 0.000006 -0.000002 0.000005 0.000001 0.043417 0.002450 0.002889 0.000000 0.000001 -0.000000 -0.000005 -0.000001 -0.000002 -0.000006 0.000004 0.000000 0.000003 0.000000 -0.000003 -0.016662 0.078957 0.057696 -27.355999 8.203424 -26.967363 -0.176972 -0.020537 -0.095144 -27.973487 -0.414391 37.802317 -28.728172 18.607211 27.693089 -0.000003 0.000001 -0.000000 -0.021773 -0.038278 0.012988 -0.000004 -0.000000 0.000002 -0.000000 0.000002 -0.000001 -0.000004 0.000001 -0.000009 0.000002 -0.000003 -0.000000 0.009114 -0.002381 -0.024211 0.000000 -0.000001 -0.000001 0.000001 -0.000001 0.000000 0.000001 -0.000000 0.000001 -0.032828 -0.025095 0.012286 -0.000004 0.000003 -0.000001 0.000000 0.000002 -0.000001 -0.000003 0.000000 -0.000002 -0.000003 0.000007 -0.000002 -0.039192 -0.011488 0.008390 -0.000001 0.000001 0.000003 -0.000000 0.000003 -0.000005 0.000001 0.000001 0.000000 -0.000001 0.000003 -0.000004 -0.043421 0.002443 0.002845 -0.000002 0.000001 0.000004 -0.000000 0.000003 0.000001 -0.000001 -0.000004 -0.000002 -0.000001 0.000002 0.000004 -0.000000 0.000000 -0.000000 -1.657623 0.699356 -9.536222 -31.948036 -0.086968 0.901064 40.211998 1.235499 -12.565662 -0.000002 -0.000000 -0.000000 0.000000 0.000000 0.000000 0.000002 -0.000002 0.000004 -0.038000 -0.085200 0.016200 0.000002 0.000003 -0.000002 -0.000000 0.000000 -0.000000 -1.599530 0.690215 -8.302742 -44.212142 0.239850 -0.010736 30.520407 2.286251 -23.752888 0.000000 -0.000002 -0.000000 0.000004 0.000001 0.000003 0.000009 -0.000001 0.000002 0.038000 -0.085200 0.016200 0.000001 -0.000000 0.000004 
